<svg id="Layer_1" enable-background="new 0 0 510 510" height="512" viewBox="0 0 510 510" width="512" xmlns="http://www.w3.org/2000/svg"><g id="XMLID_85_"><path id="XMLID_1355_" d="m0 0v300h105l45-193.102 10-54.398-10-52.5z" fill="#76e2f8"/><path id="XMLID_1356_" d="m300 0h-150v106.898l95.485 8.791 54.515-10.689z" fill="#4bb9ec"/><path id="XMLID_1326_" d="m165 105c-33.084 0-60 26.916-60 60v165c0 33.084 26.916 60 60 60h75.824l14.176-76.897 10-104.052-10-104.051z" fill="#ff7b4a"/><path id="XMLID_1354_" d="m390 165c0-33.084-26.916-60-60-60h-75v208.103l135-72.279z" fill="#ff435b"/><path id="XMLID_1324_" d="m240 375c0 74.559 60.441 135 135 135l15-135-15-135c-74.559 0-135 60.441-135 135z" fill="#ffda2d"/><path id="XMLID_1357_" d="m375 240v270c74.559 0 135-60.441 135-135s-60.441-135-135-135z" fill="#fdbf00"/></g></svg>