<svg id="Layer_1" enable-background="new 0 0 512 512" height="512" viewBox="0 0 512 512" width="512" xmlns="http://www.w3.org/2000/svg"><g><g><g><path d="m317.63 468.25h-123.26l8.67-26 11.33-34 41.63-20 12.66 6.08 28.97 13.92z" fill="#b9cfdf"/><path d="m317.63 468.25h-123.26l8.67-26h68.65c6.37 0 10.86-6.24 8.85-12.28l-11.88-35.64 28.97 13.92z" fill="#90abbd"/><path d="m512 51.66v341.18c0 8.51-6.91 15.41-15.44 15.41h-481.12c-8.53 0-15.44-6.9-15.44-15.41v-341.18c0-8.51 6.91-15.41 15.44-15.41h481.12c8.53 0 15.44 6.9 15.44 15.41z" fill="#fdeda5"/><path d="m512 51.66v341.18c0 8.51-6.91 15.41-15.44 15.41h-481.12c-8.53 0-15.44-6.9-15.44-15.41v-38.18h476.56c8.53 0 15.44-6.9 15.44-15.41v-287.59c0-8.51-6.91-15.41-15.44-15.41h20c8.53 0 15.44 6.9 15.44 15.41z" fill="#fbdf63"/><g fill="#56788b"><path d="m512 373.25v19.59c0 8.51-6.91 15.41-15.44 15.41h-481.12c-8.53 0-15.44-6.9-15.44-15.41v-19.59z"/><path d="m512 51.66v19.59h-512v-19.59c0-8.51 6.91-15.41 15.44-15.41h481.12c8.53 0 15.44 6.9 15.44 15.41z"/></g><g fill="#415e6f"><g><path d="m512 51.66v19.59h-20v-19.59c0-8.51-6.91-15.41-15.44-15.41h20c8.53 0 15.44 6.9 15.44 15.41z"/><path d="m512 373.25v19.59c0 8.51-6.91 15.41-15.44 15.41h-481.12c-8.53 0-15.44-6.9-15.44-15.41v-4.18h476.56c8.53 0 15.44-6.9 15.44-15.41z"/></g><path d="m350.001 460.75h-188.002c-4.142 0-7.5 3.358-7.5 7.5s3.358 7.5 7.5 7.5h188.002c4.143 0 7.5-3.358 7.5-7.5s-3.357-7.5-7.5-7.5z"/></g></g></g><g><g><path d="m268.424 135.924v173.96c0 1.93-1.56 3.5-3.5 3.5h-173.791c-1.94 0-3.5-1.57-3.5-3.5v-173.96c0-1.93 1.56-3.5 3.5-3.5h173.792c1.939 0 3.499 1.57 3.499 3.5z" fill="#f9d11f"/><path d="m268.424 135.924v173.96c0 1.93-1.56 3.5-3.5 3.5h-173.791c-1.94 0-3.5-1.57-3.5-3.5v-21.5h151.291c1.94 0 3.5-1.57 3.5-3.5v-152.46h22.5c1.94 0 3.5 1.57 3.5 3.5z" fill="#ffa402"/><path d="m209.154 132.424v83.8c0 1.2-.62 2.32-1.64 2.96-.57.36-1.21.54-1.86.54-.52 0-1.04-.12-1.53-.35l-26.09-12.62-26.1 12.62c-1.09.52-2.37.45-3.39-.19s-1.64-1.76-1.64-2.96v-83.8z" fill="#ff4656"/><path d="m201.381 253.432h-46.705c-4.142 0-7.5 3.358-7.5 7.5s3.358 7.5 7.5 7.5h46.705c4.142 0 7.5-3.358 7.5-7.5s-3.358-7.5-7.5-7.5z" fill="#415e6f"/></g></g><g><path d="m420.367 190.4c0 64.548-51.285 118.775-53.472 121.055-1.177 1.236-2.814 1.929-4.517 1.929s-3.34-.693-4.517-1.929c-2.188-2.28-53.472-56.507-53.472-121.055 0-31.973 26.018-57.976 57.99-57.976 31.978 0 57.988 26.002 57.988 57.976z" fill="#ff4656"/><path d="m420.367 190.4c0 64.548-51.285 118.775-53.472 121.055-1.177 1.236-2.814 1.929-4.517 1.929 1.102 0 2.163-.693 2.931-1.929 1.411-2.28 34.643-56.507 34.643-121.055 0-31.973-16.858-57.976-37.574-57.976 31.979 0 57.989 26.002 57.989 57.976z" fill="#d93c49"/><path d="m388.73 191.135c0 14.521-11.823 26.345-26.352 26.345s-26.344-11.824-26.344-26.345c0-14.53 11.815-26.345 26.344-26.345 14.528-.001 26.352 11.815 26.352 26.345z" fill="#fff"/><path d="m388.73 191.135c0 14.521-11.823 26.345-26.352 26.345 5.987 0 11.69-11.824 11.69-26.345 0-14.53-5.703-26.345-11.69-26.345 14.528-.001 26.352 11.815 26.352 26.345z" fill="#eef0f5"/></g></g></svg>